<mxfile host="app.diagrams.net" modified="2022-05-17T01:13:16.247Z" agent="5.0 (Windows NT 10.0; Win64; x64) AppleWebKit/537.36 (KHTML, like Gecko) Chrome/101.0.4951.54 Safari/537.36" etag="sdZKNymZARZ_-djCaGeT" version="18.0.6" type="github">
  <diagram id="yAzC_SjZSHB9OspK-EVg" name="Page-1">
    <mxGraphModel dx="2062" dy="786" grid="1" gridSize="10" guides="1" tooltips="1" connect="1" arrows="1" fold="1" page="1" pageScale="1" pageWidth="850" pageHeight="1100" math="0" shadow="0">
      <root>
        <mxCell id="0" />
        <mxCell id="1" parent="0" />
        <mxCell id="Zu5Ix9DOCvOWPz-IfbpH-9" style="edgeStyle=orthogonalEdgeStyle;rounded=0;orthogonalLoop=1;jettySize=auto;html=1;exitX=0.5;exitY=0.5;exitDx=0;exitDy=0;exitPerimeter=0;" edge="1" parent="1" source="aq-dMJw9Lm_8gR3XhI3i-1" target="aq-dMJw9Lm_8gR3XhI3i-6">
          <mxGeometry relative="1" as="geometry">
            <Array as="points">
              <mxPoint x="800" y="170" />
              <mxPoint x="800" y="560" />
            </Array>
          </mxGeometry>
        </mxCell>
        <mxCell id="Zu5Ix9DOCvOWPz-IfbpH-10" style="edgeStyle=orthogonalEdgeStyle;rounded=0;orthogonalLoop=1;jettySize=auto;html=1;exitX=0.5;exitY=0.5;exitDx=0;exitDy=0;exitPerimeter=0;entryX=0.5;entryY=0;entryDx=0;entryDy=0;" edge="1" parent="1" source="aq-dMJw9Lm_8gR3XhI3i-1" target="Zu5Ix9DOCvOWPz-IfbpH-3">
          <mxGeometry relative="1" as="geometry">
            <Array as="points">
              <mxPoint x="715" y="310" />
              <mxPoint x="425" y="310" />
            </Array>
          </mxGeometry>
        </mxCell>
        <mxCell id="aq-dMJw9Lm_8gR3XhI3i-1" value="Pimpinan" style="shape=umlActor;verticalLabelPosition=bottom;verticalAlign=top;html=1;outlineConnect=0;" parent="1" vertex="1">
          <mxGeometry x="700" y="140" width="30" height="60" as="geometry" />
        </mxCell>
        <mxCell id="Zu5Ix9DOCvOWPz-IfbpH-6" style="edgeStyle=orthogonalEdgeStyle;rounded=0;orthogonalLoop=1;jettySize=auto;html=1;exitX=0.5;exitY=0.5;exitDx=0;exitDy=0;exitPerimeter=0;" edge="1" parent="1" source="aq-dMJw9Lm_8gR3XhI3i-2" target="aq-dMJw9Lm_8gR3XhI3i-5">
          <mxGeometry relative="1" as="geometry">
            <Array as="points">
              <mxPoint x="95" y="480" />
              <mxPoint x="120" y="480" />
              <mxPoint x="120" y="220" />
            </Array>
          </mxGeometry>
        </mxCell>
        <mxCell id="Zu5Ix9DOCvOWPz-IfbpH-7" style="edgeStyle=orthogonalEdgeStyle;rounded=0;orthogonalLoop=1;jettySize=auto;html=1;exitX=0.5;exitY=0.5;exitDx=0;exitDy=0;exitPerimeter=0;" edge="1" parent="1" source="aq-dMJw9Lm_8gR3XhI3i-2" target="aq-dMJw9Lm_8gR3XhI3i-6">
          <mxGeometry relative="1" as="geometry">
            <Array as="points">
              <mxPoint x="95" y="560" />
            </Array>
          </mxGeometry>
        </mxCell>
        <mxCell id="Zu5Ix9DOCvOWPz-IfbpH-8" style="edgeStyle=orthogonalEdgeStyle;rounded=0;orthogonalLoop=1;jettySize=auto;html=1;exitX=0.5;exitY=0.5;exitDx=0;exitDy=0;exitPerimeter=0;" edge="1" parent="1" source="aq-dMJw9Lm_8gR3XhI3i-2" target="Zu5Ix9DOCvOWPz-IfbpH-3">
          <mxGeometry relative="1" as="geometry">
            <Array as="points">
              <mxPoint x="95" y="310" />
            </Array>
          </mxGeometry>
        </mxCell>
        <mxCell id="aq-dMJw9Lm_8gR3XhI3i-2" value="Admin Master" style="shape=umlActor;verticalLabelPosition=bottom;verticalAlign=top;html=1;outlineConnect=0;" parent="1" vertex="1">
          <mxGeometry x="80" y="520" width="30" height="60" as="geometry" />
        </mxCell>
        <mxCell id="Zu5Ix9DOCvOWPz-IfbpH-13" style="edgeStyle=orthogonalEdgeStyle;rounded=0;orthogonalLoop=1;jettySize=auto;html=1;exitX=0.5;exitY=0.5;exitDx=0;exitDy=0;exitPerimeter=0;entryX=0.5;entryY=1;entryDx=0;entryDy=0;" edge="1" parent="1" source="aq-dMJw9Lm_8gR3XhI3i-4" target="aq-dMJw9Lm_8gR3XhI3i-6">
          <mxGeometry relative="1" as="geometry">
            <Array as="points">
              <mxPoint x="740" y="910" />
              <mxPoint x="740" y="560" />
              <mxPoint x="425" y="560" />
            </Array>
          </mxGeometry>
        </mxCell>
        <mxCell id="Zu5Ix9DOCvOWPz-IfbpH-14" style="edgeStyle=orthogonalEdgeStyle;rounded=0;orthogonalLoop=1;jettySize=auto;html=1;exitX=0.5;exitY=0.5;exitDx=0;exitDy=0;exitPerimeter=0;" edge="1" parent="1" source="aq-dMJw9Lm_8gR3XhI3i-4" target="Zu5Ix9DOCvOWPz-IfbpH-3">
          <mxGeometry relative="1" as="geometry">
            <Array as="points">
              <mxPoint x="770" y="910" />
              <mxPoint x="770" y="310" />
            </Array>
          </mxGeometry>
        </mxCell>
        <mxCell id="Zu5Ix9DOCvOWPz-IfbpH-38" style="edgeStyle=orthogonalEdgeStyle;rounded=0;orthogonalLoop=1;jettySize=auto;html=1;exitX=0.5;exitY=0.5;exitDx=0;exitDy=0;exitPerimeter=0;" edge="1" parent="1" source="aq-dMJw9Lm_8gR3XhI3i-4" target="Zu5Ix9DOCvOWPz-IfbpH-2">
          <mxGeometry relative="1" as="geometry">
            <Array as="points">
              <mxPoint x="420" y="910" />
            </Array>
          </mxGeometry>
        </mxCell>
        <mxCell id="aq-dMJw9Lm_8gR3XhI3i-4" value="Editor" style="shape=umlActor;verticalLabelPosition=bottom;verticalAlign=top;html=1;outlineConnect=0;" parent="1" vertex="1">
          <mxGeometry x="700" y="880" width="30" height="60" as="geometry" />
        </mxCell>
        <mxCell id="aq-dMJw9Lm_8gR3XhI3i-5" value="Data User" style="ellipse;whiteSpace=wrap;html=1;" parent="1" vertex="1">
          <mxGeometry x="365" y="200" width="120" height="40" as="geometry" />
        </mxCell>
        <mxCell id="aq-dMJw9Lm_8gR3XhI3i-6" value="Login" style="ellipse;whiteSpace=wrap;html=1;" parent="1" vertex="1">
          <mxGeometry x="365" y="540" width="120" height="40" as="geometry" />
        </mxCell>
        <mxCell id="Zu5Ix9DOCvOWPz-IfbpH-2" value="CRUD Data" style="ellipse;whiteSpace=wrap;html=1;" vertex="1" parent="1">
          <mxGeometry x="365" y="820" width="120" height="60" as="geometry" />
        </mxCell>
        <mxCell id="Zu5Ix9DOCvOWPz-IfbpH-3" value="View Data" style="ellipse;whiteSpace=wrap;html=1;" vertex="1" parent="1">
          <mxGeometry x="365" y="280" width="120" height="60" as="geometry" />
        </mxCell>
        <mxCell id="Zu5Ix9DOCvOWPz-IfbpH-15" value="LAPSAN" style="ellipse;whiteSpace=wrap;html=1;" vertex="1" parent="1">
          <mxGeometry x="130" y="413.5" width="90" height="55" as="geometry" />
        </mxCell>
        <mxCell id="Zu5Ix9DOCvOWPz-IfbpH-16" value="TMPI" style="ellipse;whiteSpace=wrap;html=1;" vertex="1" parent="1">
          <mxGeometry x="220" y="413.5" width="90" height="55" as="geometry" />
        </mxCell>
        <mxCell id="Zu5Ix9DOCvOWPz-IfbpH-17" value="CSM" style="ellipse;whiteSpace=wrap;html=1;" vertex="1" parent="1">
          <mxGeometry x="310" y="413.5" width="90" height="55" as="geometry" />
        </mxCell>
        <mxCell id="Zu5Ix9DOCvOWPz-IfbpH-18" value="IKAMI" style="ellipse;whiteSpace=wrap;html=1;" vertex="1" parent="1">
          <mxGeometry x="400" y="413.5" width="90" height="55" as="geometry" />
        </mxCell>
        <mxCell id="Zu5Ix9DOCvOWPz-IfbpH-19" value="CSIRT" style="ellipse;whiteSpace=wrap;html=1;" vertex="1" parent="1">
          <mxGeometry x="490" y="413.5" width="90" height="55" as="geometry" />
        </mxCell>
        <mxCell id="Zu5Ix9DOCvOWPz-IfbpH-20" value="INSTANSI" style="ellipse;whiteSpace=wrap;html=1;" vertex="1" parent="1">
          <mxGeometry x="580" y="413.5" width="90" height="55" as="geometry" />
        </mxCell>
        <mxCell id="Zu5Ix9DOCvOWPz-IfbpH-21" value="KONTAK" style="ellipse;whiteSpace=wrap;html=1;" vertex="1" parent="1">
          <mxGeometry x="670" y="413.5" width="90" height="55" as="geometry" />
        </mxCell>
        <mxCell id="Zu5Ix9DOCvOWPz-IfbpH-24" value="&amp;lt;&amp;lt;extend&amp;gt;&amp;gt;" style="html=1;verticalAlign=bottom;labelBackgroundColor=none;endArrow=open;endFill=0;dashed=1;rounded=0;" edge="1" parent="1" source="Zu5Ix9DOCvOWPz-IfbpH-3" target="Zu5Ix9DOCvOWPz-IfbpH-17">
          <mxGeometry width="160" relative="1" as="geometry">
            <mxPoint x="340" y="500" as="sourcePoint" />
            <mxPoint x="500" y="500" as="targetPoint" />
          </mxGeometry>
        </mxCell>
        <mxCell id="Zu5Ix9DOCvOWPz-IfbpH-25" value="&amp;lt;&amp;lt;extend&amp;gt;&amp;gt;" style="html=1;verticalAlign=bottom;labelBackgroundColor=none;endArrow=open;endFill=0;dashed=1;rounded=0;" edge="1" parent="1" source="Zu5Ix9DOCvOWPz-IfbpH-3" target="Zu5Ix9DOCvOWPz-IfbpH-18">
          <mxGeometry width="160" relative="1" as="geometry">
            <mxPoint x="340" y="500" as="sourcePoint" />
            <mxPoint x="500" y="500" as="targetPoint" />
          </mxGeometry>
        </mxCell>
        <mxCell id="Zu5Ix9DOCvOWPz-IfbpH-26" value="&amp;lt;&amp;lt;extend&amp;gt;&amp;gt;" style="html=1;verticalAlign=bottom;labelBackgroundColor=none;endArrow=open;endFill=0;dashed=1;rounded=0;" edge="1" parent="1" source="Zu5Ix9DOCvOWPz-IfbpH-3" target="Zu5Ix9DOCvOWPz-IfbpH-19">
          <mxGeometry width="160" relative="1" as="geometry">
            <mxPoint x="340" y="500" as="sourcePoint" />
            <mxPoint x="500" y="500" as="targetPoint" />
          </mxGeometry>
        </mxCell>
        <mxCell id="Zu5Ix9DOCvOWPz-IfbpH-27" value="&amp;lt;&amp;lt;extend&amp;gt;&amp;gt;" style="html=1;verticalAlign=bottom;labelBackgroundColor=none;endArrow=open;endFill=0;dashed=1;rounded=0;" edge="1" parent="1" source="Zu5Ix9DOCvOWPz-IfbpH-3" target="Zu5Ix9DOCvOWPz-IfbpH-20">
          <mxGeometry width="160" relative="1" as="geometry">
            <mxPoint x="340" y="500" as="sourcePoint" />
            <mxPoint x="500" y="500" as="targetPoint" />
          </mxGeometry>
        </mxCell>
        <mxCell id="Zu5Ix9DOCvOWPz-IfbpH-28" value="&amp;lt;&amp;lt;extend&amp;gt;&amp;gt;" style="html=1;verticalAlign=bottom;labelBackgroundColor=none;endArrow=open;endFill=0;dashed=1;rounded=0;" edge="1" parent="1" source="Zu5Ix9DOCvOWPz-IfbpH-3" target="Zu5Ix9DOCvOWPz-IfbpH-21">
          <mxGeometry width="160" relative="1" as="geometry">
            <mxPoint x="340" y="500" as="sourcePoint" />
            <mxPoint x="500" y="500" as="targetPoint" />
          </mxGeometry>
        </mxCell>
        <mxCell id="Zu5Ix9DOCvOWPz-IfbpH-29" value="&amp;lt;&amp;lt;extend&amp;gt;&amp;gt;" style="html=1;verticalAlign=bottom;labelBackgroundColor=none;endArrow=open;endFill=0;dashed=1;rounded=0;" edge="1" parent="1" source="Zu5Ix9DOCvOWPz-IfbpH-3" target="Zu5Ix9DOCvOWPz-IfbpH-16">
          <mxGeometry width="160" relative="1" as="geometry">
            <mxPoint x="340" y="500" as="sourcePoint" />
            <mxPoint x="500" y="500" as="targetPoint" />
          </mxGeometry>
        </mxCell>
        <mxCell id="Zu5Ix9DOCvOWPz-IfbpH-30" value="&amp;lt;&amp;lt;extend&amp;gt;&amp;gt;" style="html=1;verticalAlign=bottom;labelBackgroundColor=none;endArrow=open;endFill=0;dashed=1;rounded=0;" edge="1" parent="1" source="Zu5Ix9DOCvOWPz-IfbpH-3" target="Zu5Ix9DOCvOWPz-IfbpH-15">
          <mxGeometry width="160" relative="1" as="geometry">
            <mxPoint x="340" y="500" as="sourcePoint" />
            <mxPoint x="500" y="500" as="targetPoint" />
          </mxGeometry>
        </mxCell>
        <mxCell id="Zu5Ix9DOCvOWPz-IfbpH-31" value="LAPSAN" style="ellipse;whiteSpace=wrap;html=1;" vertex="1" parent="1">
          <mxGeometry x="102" y="641" width="90" height="55" as="geometry" />
        </mxCell>
        <mxCell id="Zu5Ix9DOCvOWPz-IfbpH-32" value="TMPI" style="ellipse;whiteSpace=wrap;html=1;" vertex="1" parent="1">
          <mxGeometry x="192" y="641" width="90" height="55" as="geometry" />
        </mxCell>
        <mxCell id="Zu5Ix9DOCvOWPz-IfbpH-33" value="CSM" style="ellipse;whiteSpace=wrap;html=1;" vertex="1" parent="1">
          <mxGeometry x="282" y="641" width="90" height="55" as="geometry" />
        </mxCell>
        <mxCell id="Zu5Ix9DOCvOWPz-IfbpH-34" value="IKAMI" style="ellipse;whiteSpace=wrap;html=1;" vertex="1" parent="1">
          <mxGeometry x="372" y="641" width="90" height="55" as="geometry" />
        </mxCell>
        <mxCell id="Zu5Ix9DOCvOWPz-IfbpH-35" value="CSIRT" style="ellipse;whiteSpace=wrap;html=1;" vertex="1" parent="1">
          <mxGeometry x="462" y="641" width="90" height="55" as="geometry" />
        </mxCell>
        <mxCell id="Zu5Ix9DOCvOWPz-IfbpH-36" value="INSTANSI" style="ellipse;whiteSpace=wrap;html=1;" vertex="1" parent="1">
          <mxGeometry x="552" y="641" width="90" height="55" as="geometry" />
        </mxCell>
        <mxCell id="Zu5Ix9DOCvOWPz-IfbpH-37" value="KONTAK" style="ellipse;whiteSpace=wrap;html=1;" vertex="1" parent="1">
          <mxGeometry x="642" y="641" width="90" height="55" as="geometry" />
        </mxCell>
        <mxCell id="Zu5Ix9DOCvOWPz-IfbpH-46" value="&amp;lt;&amp;lt;extend&amp;gt;&amp;gt;" style="html=1;verticalAlign=bottom;labelBackgroundColor=none;endArrow=open;endFill=0;dashed=1;rounded=0;exitX=0;exitY=0;exitDx=0;exitDy=0;entryX=0.611;entryY=0.982;entryDx=0;entryDy=0;entryPerimeter=0;" edge="1" parent="1" source="Zu5Ix9DOCvOWPz-IfbpH-2" target="Zu5Ix9DOCvOWPz-IfbpH-31">
          <mxGeometry width="160" relative="1" as="geometry">
            <mxPoint x="340" y="600" as="sourcePoint" />
            <mxPoint x="160" y="700" as="targetPoint" />
          </mxGeometry>
        </mxCell>
        <mxCell id="Zu5Ix9DOCvOWPz-IfbpH-47" value="&amp;lt;&amp;lt;extend&amp;gt;&amp;gt;" style="html=1;verticalAlign=bottom;labelBackgroundColor=none;endArrow=open;endFill=0;dashed=1;rounded=0;entryX=0.5;entryY=1;entryDx=0;entryDy=0;exitX=0.225;exitY=0.083;exitDx=0;exitDy=0;exitPerimeter=0;" edge="1" parent="1" source="Zu5Ix9DOCvOWPz-IfbpH-2" target="Zu5Ix9DOCvOWPz-IfbpH-32">
          <mxGeometry width="160" relative="1" as="geometry">
            <mxPoint x="400" y="830" as="sourcePoint" />
            <mxPoint x="500" y="600" as="targetPoint" />
          </mxGeometry>
        </mxCell>
        <mxCell id="Zu5Ix9DOCvOWPz-IfbpH-48" value="&amp;lt;&amp;lt;extend&amp;gt;&amp;gt;" style="html=1;verticalAlign=bottom;labelBackgroundColor=none;endArrow=open;endFill=0;dashed=1;rounded=0;exitX=0.333;exitY=0.05;exitDx=0;exitDy=0;exitPerimeter=0;entryX=0.5;entryY=1;entryDx=0;entryDy=0;" edge="1" parent="1" source="Zu5Ix9DOCvOWPz-IfbpH-2" target="Zu5Ix9DOCvOWPz-IfbpH-33">
          <mxGeometry width="160" relative="1" as="geometry">
            <mxPoint x="340" y="600" as="sourcePoint" />
            <mxPoint x="500" y="600" as="targetPoint" />
          </mxGeometry>
        </mxCell>
        <mxCell id="Zu5Ix9DOCvOWPz-IfbpH-49" value="&amp;lt;&amp;lt;extend&amp;gt;&amp;gt;" style="html=1;verticalAlign=bottom;labelBackgroundColor=none;endArrow=open;endFill=0;dashed=1;rounded=0;exitX=0.5;exitY=0;exitDx=0;exitDy=0;entryX=0.5;entryY=1;entryDx=0;entryDy=0;" edge="1" parent="1" source="Zu5Ix9DOCvOWPz-IfbpH-2" target="Zu5Ix9DOCvOWPz-IfbpH-34">
          <mxGeometry width="160" relative="1" as="geometry">
            <mxPoint x="340" y="600" as="sourcePoint" />
            <mxPoint x="500" y="600" as="targetPoint" />
          </mxGeometry>
        </mxCell>
        <mxCell id="Zu5Ix9DOCvOWPz-IfbpH-50" value="&amp;lt;&amp;lt;extend&amp;gt;&amp;gt;" style="html=1;verticalAlign=bottom;labelBackgroundColor=none;endArrow=open;endFill=0;dashed=1;rounded=0;exitX=0.675;exitY=0.017;exitDx=0;exitDy=0;exitPerimeter=0;" edge="1" parent="1" source="Zu5Ix9DOCvOWPz-IfbpH-2" target="Zu5Ix9DOCvOWPz-IfbpH-35">
          <mxGeometry width="160" relative="1" as="geometry">
            <mxPoint x="340" y="600" as="sourcePoint" />
            <mxPoint x="500" y="600" as="targetPoint" />
          </mxGeometry>
        </mxCell>
        <mxCell id="Zu5Ix9DOCvOWPz-IfbpH-51" value="&amp;lt;&amp;lt;extend&amp;gt;&amp;gt;" style="html=1;verticalAlign=bottom;labelBackgroundColor=none;endArrow=open;endFill=0;dashed=1;rounded=0;exitX=0.792;exitY=0.1;exitDx=0;exitDy=0;entryX=0.222;entryY=0.927;entryDx=0;entryDy=0;entryPerimeter=0;exitPerimeter=0;" edge="1" parent="1" source="Zu5Ix9DOCvOWPz-IfbpH-2" target="Zu5Ix9DOCvOWPz-IfbpH-36">
          <mxGeometry width="160" relative="1" as="geometry">
            <mxPoint x="340" y="600" as="sourcePoint" />
            <mxPoint x="500" y="600" as="targetPoint" />
          </mxGeometry>
        </mxCell>
        <mxCell id="Zu5Ix9DOCvOWPz-IfbpH-52" value="&amp;lt;&amp;lt;extend&amp;gt;&amp;gt;" style="html=1;verticalAlign=bottom;labelBackgroundColor=none;endArrow=open;endFill=0;dashed=1;rounded=0;exitX=1;exitY=0;exitDx=0;exitDy=0;entryX=0;entryY=1;entryDx=0;entryDy=0;" edge="1" parent="1" source="Zu5Ix9DOCvOWPz-IfbpH-2" target="Zu5Ix9DOCvOWPz-IfbpH-37">
          <mxGeometry width="160" relative="1" as="geometry">
            <mxPoint x="340" y="600" as="sourcePoint" />
            <mxPoint x="500" y="600" as="targetPoint" />
          </mxGeometry>
        </mxCell>
      </root>
    </mxGraphModel>
  </diagram>
</mxfile>
